<svg width="40" height="40" viewBox="0 0 40 40" fill="none" xmlns="http://www.w3.org/2000/svg">
<path d="M37.5 17.1429C38.1901 17.1429 38.7793 17.4219 39.2676 17.9799C39.7559 18.5379 40 19.2113 40 20C40 20.7887 39.7559 21.4621 39.2676 22.0201C38.7793 22.5781 38.1901 22.8571 37.5 22.8571H37.207L34.9609 37.6339C34.8568 38.3185 34.5703 38.8839 34.1016 39.3304C33.6328 39.7768 33.099 40 32.5 40H7.5C6.90104 40 6.36719 39.7768 5.89844 39.3304C5.42969 38.8839 5.14323 38.3185 5.03906 37.6339L2.79297 22.8571H2.5C1.8099 22.8571 1.2207 22.5781 0.732422 22.0201C0.244141 21.4621 0 20.7887 0 20C0 19.2113 0.244141 18.5379 0.732422 17.9799C1.2207 17.4219 1.8099 17.1429 2.5 17.1429H37.5ZM9.47266 35C9.8112 34.9702 10.0944 34.8028 10.3223 34.4978C10.5501 34.1927 10.651 33.8467 10.625 33.4598L10 24.1741C9.97396 23.7872 9.82747 23.4635 9.56055 23.2031C9.29362 22.9427 8.99088 22.8274 8.65234 22.8571C8.3138 22.8869 8.0306 23.0543 7.80273 23.3594C7.57487 23.6644 7.47396 24.0104 7.5 24.3973L8.125 33.683C8.15104 34.0551 8.2845 34.3676 8.52539 34.6205C8.76628 34.8735 9.04948 35 9.375 35H9.47266ZM17.5 33.5714V24.2857C17.5 23.8988 17.3763 23.564 17.1289 23.2812C16.8815 22.9985 16.5885 22.8571 16.25 22.8571C15.9115 22.8571 15.6185 22.9985 15.3711 23.2812C15.1237 23.564 15 23.8988 15 24.2857V33.5714C15 33.9583 15.1237 34.2932 15.3711 34.5759C15.6185 34.8586 15.9115 35 16.25 35C16.5885 35 16.8815 34.8586 17.1289 34.5759C17.3763 34.2932 17.5 33.9583 17.5 33.5714ZM25 33.5714V24.2857C25 23.8988 24.8763 23.564 24.6289 23.2812C24.3815 22.9985 24.0885 22.8571 23.75 22.8571C23.4115 22.8571 23.1185 22.9985 22.8711 23.2812C22.6237 23.564 22.5 23.8988 22.5 24.2857V33.5714C22.5 33.9583 22.6237 34.2932 22.8711 34.5759C23.1185 34.8586 23.4115 35 23.75 35C24.0885 35 24.3815 34.8586 24.6289 34.5759C24.8763 34.2932 25 33.9583 25 33.5714ZM31.875 33.683L32.5 24.3973C32.526 24.0104 32.4251 23.6644 32.1973 23.3594C31.9694 23.0543 31.6862 22.8869 31.3477 22.8571C31.0091 22.8274 30.7064 22.9427 30.4394 23.2031C30.1725 23.4635 30.026 23.7872 30 24.1741L29.375 33.4598C29.349 33.8467 29.4499 34.1927 29.6777 34.4978C29.9056 34.8028 30.1888 34.9702 30.5273 35H30.625C30.9505 35 31.2337 34.8735 31.4746 34.6205C31.7155 34.3676 31.849 34.0551 31.875 33.683ZM9.29687 6.51786L7.48047 15.7143H4.90234L6.875 5.87054C7.1224 4.56101 7.70182 3.4933 8.61328 2.66741C9.52474 1.84152 10.5664 1.42857 11.7383 1.42857H15C15 1.04167 15.1237 0.706845 15.3711 0.424107C15.6185 0.141369 15.9115 0 16.25 0H23.75C24.0885 0 24.3815 0.141369 24.6289 0.424107C24.8763 0.706845 25 1.04167 25 1.42857H28.2617C29.4336 1.42857 30.4753 1.84152 31.3867 2.66741C32.2982 3.4933 32.8776 4.56101 33.125 5.87054L35.0977 15.7143H32.5195L30.7031 6.51786C30.5599 5.8631 30.2637 5.32738 29.8145 4.91071C29.3652 4.49405 28.8477 4.28571 28.2617 4.28571H25C25 4.67262 24.8763 5.00744 24.6289 5.29018C24.3815 5.57292 24.0885 5.71429 23.75 5.71429H16.25C15.9115 5.71429 15.6185 5.57292 15.3711 5.29018C15.1237 5.00744 15 4.67262 15 4.28571H11.7383C11.1523 4.28571 10.6348 4.49405 10.1855 4.91071C9.73633 5.32738 9.4401 5.8631 9.29687 6.51786Z" fill="#CA6228"/>
</svg>
